PathFileType	4	(X/Y/Z)	C:\Users\Willi\SynologyDrive\Deimel_MSc_Deadlift\Athlete_03\Athlete_3_22_07_06\dl_80\marker_experimental.trc
DataRate	CameraRate	NumFrames	NumMarkers	Units	OrigDataRate	OrigDataStartFrame	OrigNumFrames
200.000000	200.000000	4	59	mm	200.000000	827	3308
Frame#	Time	BL			BR			GLAB			RFHD			LFHD			C7			T6			SPINMOL			SPINM2			SPINM3			T12			BELTOL			BELT2			BELT3			SACROL			SACR2			SACR3			LTHOL			LTH2			LTH3			LSHAOL			LSHA2			LSHA3			LHEE			LTOE			LM5			RTHOL			RTH2			RTH3			RSHAOL			RSHA2			RSHA3			RHEE			RTOE			RM5			STRN			XIPH			LACR			LUAOL			LUA2			LUA3			LLAOL			LLA2			LLA3			LWRU			RACR			RUAOL			RUA2			RUA3			RLAOL			RLA2			RLA3			RWRU			USERMO0			USERMO1			USERMO2			USERMO3			USERMO4			USERMO5			
		X1	Y1	Z1	X2	Y2	Z2	X3	Y3	Z3	X4	Y4	Z4	X5	Y5	Z5	X6	Y6	Z6	X7	Y7	Z7	X8	Y8	Z8	X9	Y9	Z9	X10	Y10	Z10	X11	Y11	Z11	X12	Y12	Z12	X13	Y13	Z13	X14	Y14	Z14	X15	Y15	Z15	X16	Y16	Z16	X17	Y17	Z17	X18	Y18	Z18	X19	Y19	Z19	X20	Y20	Z20	X21	Y21	Z21	X22	Y22	Z22	X23	Y23	Z23	X24	Y24	Z24	X25	Y25	Z25	X26	Y26	Z26	X27	Y27	Z27	X28	Y28	Z28	X29	Y29	Z29	X30	Y30	Z30	X31	Y31	Z31	X32	Y32	Z32	X33	Y33	Z33	X34	Y34	Z34	X35	Y35	Z35	X36	Y36	Z36	X37	Y37	Z37	X38	Y38	Z38	X39	Y39	Z39	X40	Y40	Z40	X41	Y41	Z41	X42	Y42	Z42	X43	Y43	Z43	X44	Y44	Z44	X45	Y45	Z45	X46	Y46	Z46	X47	Y47	Z47	X48	Y48	Z48	X49	Y49	Z49	X50	Y50	Z50	X51	Y51	Z51	X52	Y52	Z52	X53	Y53	Z53	X54	Y54	Z54	X55	Y55	Z55	X56	Y56	Z56	X57	Y57	Z57	X58	Y58	Z58	X59	Y59	Z59	

828	4.135	127.5648956298828	246.383514404297	-2313.963623046875	191.7409820556641	248.9280548095703	-91.60455322265624	539.2192993164062	763.2431640625001	-1196.23046875	554.12890625	832.2399291992189	-1127.646728515625	544.3245239257812	816.6282958984376	-1281.011962890625	409.5190734863281	984.1398925781251	-1203.721557617188	209.4423065185547	1048.44384765625	-1203.0986328125	175.0498504638672	1053.971557617188	-1204.624755859375	116.2221069335938	1051.638427734375	-1150.349243164062	113.1224060058594	1050.431396484375	-1200.034423828125	62.30317306518555	1037.72119140625	-1198.474487304688	1.266425728797913	1054.914428710938	-1199.214599609375	-53.41007995605469	1032.065063476562	-1145.531005859375	-58.15660095214844	1036.670532226562	-1195.294799804688	-129.8842010498047	982.4776611328126	-1211.586181640625	-116.8656997680664	984.7318115234376	-1162.188720703125	-176.1979675292969	957.4785156250001	-1171.1572265625	-27.51255226135254	721.0977783203126	-1427.00390625	-39.96565246582031	642.4556884765626	-1417.6044921875	3.428962469100952	667.4520263671876	-1424.981201171875	66.40595245361328	343.1432495117189	-1427.997680664062	26.25320053100586	276.0484619140626	-1418.212524414062	75.40741729736328	282.1167297363282	-1421.006225585938	2.280484199523926	64.09184265136727	-1325.112182617188	213.9481964111328	75.56742095947274	-1336.570434570312	164.3658447265625	55.29914474487313	-1439.439331054688	-14.18483924865723	686.3328857421876	-964.0540771484375	58.32170486450195	653.3713989257814	-957.8757934570312	13.88800621032715	630.7340087890626	-964.0472412109375	52.03048706054688	333.7584533691407	-974.853515625	91.79931640625	265.1724853515626	-979.4993286132812	43.36854553222656	274.7218322753907	-989.302978515625	3.91266393661499	65.52596282958991	-1105.465209960938	215.6005401611328	71.41570281982429	-1067.99951171875	157.5234375	63.97231292724615	-976.3053588867188	336.5736083984375	827.0284423828126	-1209.073852539062	185.2572174072266	786.5480346679689	-1204.725341796875	361.8938903808594	881.1062011718751	-1404.017578125	288.0791931152344	768.6785888671876	-1466.655883789062	242.0145111083984	725.3609008789064	-1487.28076171875	282.6384582519531	702.9025878906251	-1464.664916992188	228.7430572509766	491.0289001464845	-1469.198608398438	198.6156616210938	433.0792236328126	-1477.048461914062	233.9906616210938	432.7554016113282	-1442.170776367188	201.0721282958984	341.6253967285157	-1456.102661132812	378.131591796875	868.8967285156251	-1022.741149902344	311.3062744140625	722.9517822265626	-980.94775390625	299.9929504394531	664.9551391601564	-1009.018798828125	290.2661437988281	663.7806396484376	-959.711181640625	248.089111328125	474.4747619628907	-966.672119140625	241.6755218505859	420.0351257324219	-1001.335327148438	229.8900146484375	414.4697265625001	-951.8299560546875	212.0877380371094	341.3597412109376	-953.5598754882812	0.02359599992632866	0.01324540004134178	-0.02619200013577938	0.03859220072627068	0.01058090012520552	-0.006853479892015456	0.006686979904770851	0.006735309958457948	-0.01088070031255484	0.01241740025579929	2.140389919281006	-2.026109933853149	1.979200005531311	2.773940086364746	-1.905910015106201	2.841909885406494	0	0	
829	4.14	127.6424942016602	246.465545654297	-2313.89501953125	191.8226776123047	249.0211639404297	-91.57088470458983	539.3463134765625	762.7702636718751	-1196.279052734375	554.2650756835938	831.7841186523439	-1127.699584960938	544.4691772460938	816.1159057617189	-1281.07666015625	409.5988159179688	983.5156250000001	-1203.796875	209.6357574462891	1047.7900390625	-1203.195190429688	175.2764587402344	1053.3642578125	-1204.708740234375	116.451416015625	1051.151245117188	-1150.428955078125	113.3380279541016	1049.92529296875	-1200.122924804688	62.51000213623047	1037.286376953125	-1198.545776367188	1.530296087265015	1054.6416015625	-1199.3369140625	-53.18400573730469	1031.903076171875	-1145.639282226562	-57.92270660400391	1036.5029296875	-1195.406127929688	-129.7490692138672	982.3685302734376	-1211.705078125	-116.7349472045898	984.6032714843751	-1162.286254882812	-176.1170806884766	957.4632568359376	-1171.254150390625	-27.53692436218262	720.9941406250001	-1426.973754882812	-39.96842956542969	642.3524169921876	-1417.611938476562	3.423635721206665	667.3662719726564	-1424.941040039062	66.43798065185547	343.164764404297	-1427.933959960938	26.28691291809082	276.0664062500001	-1418.158325195312	75.43801116943359	282.1373291015626	-1420.961547851562	2.301007747650146	64.0964889526368	-1325.107177734375	213.950439453125	75.55126190185555	-1336.56494140625	164.3666381835938	55.30216217041024	-1439.4365234375	-14.27941226959229	686.3051757812501	-964.0662231445312	58.23767852783203	653.3641967773439	-957.9197998046875	13.81153106689453	630.7150878906251	-964.0908813476562	52.03844833374023	333.7588500976563	-974.9019165039062	91.83373260498047	265.1899719238282	-979.5543823242188	43.39313507080078	274.7169799804688	-989.3281860351562	3.937757253646851	65.5260314941407	-1105.471923828125	215.6067047119141	71.40753936767585	-1068.001953125	157.5277709960938	63.98303985595709	-976.3098754882812	336.5829467773438	826.3513793945314	-1209.169799804688	185.2653350830078	785.9244384765626	-1204.760864257812	362.0938415527344	880.5747680664064	-1404.052124023438	288.3508911132812	768.3280639648439	-1466.868286132812	242.3046722412109	725.0828857421876	-1487.6982421875	282.8526306152344	702.5531616210939	-1465.01904296875	228.6900024414062	490.7165527343751	-1469.7333984375	198.5658264160156	432.7252502441407	-1477.429321289062	233.9206085205078	432.5061645507814	-1442.52783203125	200.9936828613281	341.3508605957032	-1456.269897460938	378.3798828125	868.4082641601564	-1022.847412109375	311.5337829589844	722.5969848632814	-980.7310180664062	300.0977478027344	664.5588989257814	-1008.675842285156	290.4871520996094	663.4781494140626	-959.3373413085938	248.0519409179688	474.2116088867188	-966.2184448242188	241.6501312255859	419.8254394531251	-1000.966369628906	229.7800445556641	414.1950988769532	-951.4923706054688	212.0346527099609	341.1413879394532	-953.3600463867188	0.02362360060214996	0.01293409988284111	-0.02627089992165565	0.03759749978780746	0.01020670030266047	-0.006843389943242072	0.00646978011354804	0.00646445993334055	-0.01010860037058592	0.01155859977006912	2.139990091323853	-2.023789882659912	1.981459975242615	2.774290084838867	-1.909080028533935	2.842619895935059	0	0	
830	4.145	127.7192230224609	246.5512695312501	-2313.823974609375	191.9039764404297	249.1186981201172	-91.5380401611328	539.4450073242188	762.2790527343751	-1196.3408203125	554.3834838867188	831.3046875000001	-1127.768432617188	544.583740234375	815.5854492187501	-1281.15673828125	409.6792907714844	982.8789062500001	-1203.876342773438	209.8369903564453	1047.137939453125	-1203.29931640625	175.5068664550781	1052.767333984375	-1204.801635742188	116.6847915649414	1050.682006835938	-1150.515991210938	113.5583801269531	1049.437622070312	-1200.21923828125	62.70647430419922	1036.8642578125	-1198.621826171875	1.76993715763092	1054.382690429688	-1199.459350585938	-52.97879409790039	1031.749267578125	-1145.74658203125	-57.71196746826172	1036.3447265625	-1195.515869140625	-129.6315307617188	982.2556152343751	-1211.820556640625	-116.6214065551758	984.4714965820314	-1162.382690429688	-176.0518035888672	957.4409790039064	-1171.349365234375	-27.56809616088867	720.8903198242189	-1426.938842773438	-39.97589492797852	642.2478637695314	-1417.618041992188	3.413109302520752	667.2810668945314	-1424.8994140625	66.46556091308594	343.1881713867189	-1427.870239257812	26.31658935546875	276.0860290527345	-1418.104248046875	75.46463012695312	282.1596679687501	-1420.917602539062	2.321978569030762	64.10147094726571	-1325.101806640625	213.9528350830078	75.53620147705087	-1336.558715820312	164.367919921875	55.30667877197274	-1439.432373046875	-14.34867000579834	686.2811279296876	-964.0995483398438	58.18094635009766	653.3626708984376	-957.9967041015625	13.76152229309082	630.7003173828126	-964.1550903320312	52.05809783935547	333.7710266113282	-974.9694213867188	91.876953125	265.2157897949219	-979.6271362304688	43.42624664306641	274.7228393554688	-989.3702392578125	3.963304281234741	65.52567291259773	-1105.477905273438	215.6136779785156	71.39865112304695	-1068.009033203125	157.5341339111328	63.99623489379888	-976.3189086914062	336.5765686035156	825.6604003906251	-1209.268798828125	185.2509460449219	785.3065185546876	-1204.806884765625	362.3151550292969	880.0089721679689	-1404.086059570312	288.6536865234375	767.9501342773439	-1467.1064453125	242.6304626464844	724.7783203125001	-1488.152465820312	283.0997314453125	702.1759643554689	-1465.408325195312	228.6332092285156	490.3772888183595	-1470.302856445312	198.510986328125	432.3460693359376	-1477.840209960938	233.8480834960938	432.231903076172	-1442.917236328125	200.9024505615234	341.055145263672	-1456.461059570312	378.6475219726562	867.8922119140626	-1022.960571289062	311.8017578125	722.2177124023439	-980.4862670898438	300.2434387207031	664.1320190429689	-1008.29443359375	290.7554321289062	663.1555175781251	-958.9180908203125	248.0343933105469	473.9204711914063	-965.7298583984375	241.6469116210938	419.5929260253907	-1000.569519042969	229.6789703369141	413.8923645019532	-951.1327514648438	211.9943695068359	340.9006042480469	-953.1478271484375	0.0236188992857933	0.01253950037062168	-0.02655619941651821	0.03642560169100761	0.009843310341238976	-0.006898149847984313	0.006282779853790998	0.006222399882972241	-0.009455329738557339	0.01076260022819042	2.140249967575073	-2.021889925003052	1.983579993247986	2.774719953536987	-1.912039995193481	2.843159914016724	0	0	
831	4.15	127.7957153320312	246.6400451660158	-2313.7529296875	191.9847106933594	249.2194976806641	-91.5064239501953	539.5177001953125	761.7774047851564	-1196.414428710938	554.483642578125	830.8090209960939	-1127.852905273438	544.6682739257812	815.0440063476564	-1281.25146484375	409.7602844238281	982.2364501953126	-1203.960083007812	210.0446319580078	1046.494140625	-1203.411499023438	175.7393493652344	1052.1865234375	-1204.904418945312	116.9207534790039	1050.235107421875	-1150.610595703125	113.7819671630859	1048.973510742188	-1200.323486328125	62.89144515991211	1036.458984375	-1198.702392578125	1.983683228492737	1054.140380859375	-1199.581176757812	-52.79582595825195	1031.605590820312	-1145.851928710938	-57.52590179443359	1036.19775390625	-1195.623168945312	-129.5326843261719	982.1406250000001	-1211.93115234375	-116.5257949829102	984.3388671875001	-1162.477294921875	-176.0025634765625	957.4130859375001	-1171.442016601562	-27.60843849182129	720.7882690429689	-1426.902587890625	-39.9904899597168	642.1438598632814	-1417.623779296875	3.394947290420532	667.1978759765626	-1424.858520507812	66.48595428466797	343.2130126953126	-1427.807739257812	26.33995628356934	276.1068115234376	-1418.050537109375	75.48497009277344	282.1833801269532	-1420.875122070312	2.34286904335022	64.1068649291993	-1325.095703125	213.9551849365234	75.52228546142587	-1336.55224609375	164.3695678710938	55.31249237060555	-1439.427368164062	-14.39470672607422	686.2594604492189	-964.1539306640625	58.14957427978516	653.3652954101564	-958.1061401367188	13.73594570159912	630.6884155273439	-964.240234375	52.08897399902344	333.7941589355469	-975.056884765625	91.92861938476562	265.2494201660157	-979.7181396484375	43.4676628112793	274.7385559082032	-989.4297485351562	3.989264249801636	65.5246658325196	-1105.4833984375	215.6214904785156	71.38889312744148	-1068.020751953125	157.5426330566406	64.01215362548834	-976.3327026367188	336.55517578125	824.9627075195314	-1209.3701171875	185.2150573730469	784.7003173828126	-1204.862670898438	362.5572814941406	879.4132690429689	-1404.118774414062	288.9880676269531	767.5482177734376	-1467.369018554688	242.9928894042969	724.4501953125001	-1488.641967773438	283.38037109375	701.7741699218751	-1465.830444335938	228.5737762451172	490.0144653320314	-1470.902465820312	198.4508666992188	431.9456787109376	-1478.27880859375	233.7726745605469	431.935028076172	-1443.336547851562	200.7972106933594	340.7410278320314	-1456.676147460938	378.932373046875	867.3529052734376	-1023.079650878906	312.1065673828125	721.8178710937501	-980.2157592773438	300.4270935058594	663.6791992187501	-1007.87890625	291.0676574707031	662.8163452148439	-958.4577026367188	248.0372009277344	473.6046752929688	-965.2120361328125	241.6664886474609	419.3405456542969	-1000.149658203125	229.5900573730469	413.5648498535157	-950.7548828125	211.9686126708984	340.6399536132813	-952.9254760742188	0.02359169907867908	0.01208029966801405	-0.0269847996532917	0.0351920984685421	0.009486829861998558	-0.006999339908361434	0.006122259888797998	0.006009450182318688	-0.008912569843232632	0.01003559958189726	2.140980005264282	-2.020339965820312	1.985440015792847	2.775279998779297	-1.914549946784973	2.843580007553101	0	0	
